<svg width="33" height="20" viewBox="0 0 33 20" fill="none" xmlns="http://www.w3.org/2000/svg">
<g clip-path="url(#clip0_6_104)">
<path d="M16.6506 17.3889V2.00307C16.6506 0.452033 14.9616 -0.508702 13.6284 0.283992L0.977851 7.80594C-0.311025 8.5723 -0.329372 10.4319 0.944134 11.2236L13.5947 19.0874C14.927 19.9156 16.6506 18.9576 16.6506 17.3889Z" fill="white"/>
<path d="M32.8011 17.3889V2.00307C32.8011 0.452033 31.1121 -0.508702 29.7789 0.283992L17.1284 7.80594C15.8395 8.5723 15.8211 10.4319 17.0946 11.2236L29.7452 19.0874C31.0775 19.9156 32.8011 18.9576 32.8011 17.3889Z" fill="white"/>
<path d="M47.6506 17.3889V2.00307C47.6506 0.452033 45.9616 -0.508702 44.6284 0.283992L31.9779 7.80594C30.689 8.5723 30.6706 10.4319 31.9441 11.2236L44.5947 19.0874C45.927 19.9156 47.6506 18.9576 47.6506 17.3889Z" fill="white" fill-opacity="0.2"/>
</g>
<defs>
<clipPath id="clip0_6_104">
<rect width="32.8011" height="19.3921" fill="white"/>
</clipPath>
</defs>
</svg>
