<svg width="50" height="50" viewBox="0 0 50 50" fill="none" xmlns="http://www.w3.org/2000/svg">
<g id="Icon Flashlight">
<circle id="Ellipse 3" cx="25" cy="25" r="25" fill="black" fill-opacity="0.4"/>
<g id="Subtract">
<path d="M25 28.5C26.933 28.5 28.5 26.933 28.5 25C28.5 23.067 26.933 21.5 25 21.5C23.067 21.5 21.5 23.067 21.5 25C21.5 26.933 23.067 28.5 25 28.5Z" fill="white"/>
<path fill-rule="evenodd" clip-rule="evenodd" d="M14 31V20C14 18.8954 14.8954 18 16 18H19.5858C19.851 18 20.1054 17.8946 20.2929 17.7071L21.7071 16.2929C21.8946 16.1054 22.149 16 22.4142 16H27.5858C27.851 16 28.1054 16.1054 28.2929 16.2929L29.7071 17.7071C29.8946 17.8946 30.149 18 30.4142 18H34C35.1046 18 36 18.8954 36 20V31C36 32.1046 35.1046 33 34 33H16C14.8954 33 14 32.1046 14 31ZM25 30C27.7614 30 30 27.7614 30 25C30 22.2386 27.7614 20 25 20C22.2386 20 20 22.2386 20 25C20 27.7614 22.2386 30 25 30ZM32.25 23.5C32.9404 23.5 33.5 22.9404 33.5 22.25C33.5 21.5596 32.9404 21 32.25 21C31.5596 21 31 21.5596 31 22.25C31 22.9404 31.5596 23.5 32.25 23.5Z" fill="white"/>
</g>
</g>
</svg>
